<svg width="35" height="35" viewBox="0 0 35 35" fill="none" xmlns="http://www.w3.org/2000/svg">
<path d="M13.8542 11.6667L24.0625 8.02087L19.6875 15.3125L18.2292 22.6042L16.0417 25.5209L8.02083 24.0625L8.75 21.1459L13.8542 11.6667Z" fill="white"/>
<path d="M8.75 30.625L8.47426 26.213C7.83342 15.9596 15.9766 7.29163 26.25 7.29163V7.29163L24.4747 8.71185C23.4846 9.50393 22.9896 9.89997 22.5576 10.3235C20.5535 12.2882 19.3015 14.8933 19.0192 17.6855C18.9583 18.2875 18.9583 18.9214 18.9583 20.1894V20.1894C18.9583 21.1992 18.9583 21.704 18.8783 22.098C18.4965 23.9781 16.8337 25.3224 14.9153 25.3018C14.5133 25.2975 14.0196 25.1917 13.0323 24.9801L8.75 24.0625" stroke="white" stroke-width="2"/>
</svg>
