<svg width="33" height="33" viewBox="0 0 33 33" fill="none" xmlns="http://www.w3.org/2000/svg">
<path fill-rule="evenodd" clip-rule="evenodd" d="M22.25 4.125H22H6.75C4.86438 4.125 3.92157 4.125 3.33579 4.71079C2.75 5.29657 2.75 6.23938 2.75 8.125V28.875L6.875 27.5L11 28.875L15.125 27.5L19.1141 28.8297L19.25 15.125L19.25 8.625C19.25 6.18955 21.1847 4.20598 23.6011 4.12742C23.1797 4.125 22.7301 4.125 22.25 4.125ZM29.625 15.125V8.625C29.625 7.24429 28.5057 6.125 27.125 6.125H23.75C22.3693 6.125 21.25 7.24429 21.25 8.625V15.125H29.625ZM5.875 9.625C5.875 9.07272 6.32272 8.625 6.875 8.625H15.125C15.6773 8.625 16.125 9.07272 16.125 9.625C16.125 10.1773 15.6773 10.625 15.125 10.625H6.875C6.32272 10.625 5.875 10.1773 5.875 9.625ZM5.875 15.125C5.875 14.5727 6.32272 14.125 6.875 14.125H9.625C10.1773 14.125 10.625 14.5727 10.625 15.125C10.625 15.6773 10.1773 16.125 9.625 16.125H6.875C6.32272 16.125 5.875 15.6773 5.875 15.125ZM5.875 20.625C5.875 20.0727 6.32272 19.625 6.875 19.625H12.375C12.9273 19.625 13.375 20.0727 13.375 20.625C13.375 21.1773 12.9273 21.625 12.375 21.625H6.875C6.32272 21.625 5.875 21.1773 5.875 20.625Z" fill="black"/>
</svg>
