<svg width="66" height="47" viewBox="0 0 66 47" fill="none" xmlns="http://www.w3.org/2000/svg">
<path d="M22.8902 6.61585C23.1335 6.603 23.3784 6.5965 23.6249 6.5965C31.1958 6.5965 37.3333 12.7339 37.3333 20.3048C37.3333 27.8757 31.1958 34.0132 23.6249 34.0132C21.0265 34.0132 18.5969 33.2902 16.5263 32.0344C23.7556 31.6526 29.4999 25.6699 29.4999 18.3454C29.4999 13.373 26.8525 9.0189 22.8902 6.61585Z" fill="#19607E"/>
<path d="M4.60263 8.13245L1.84605 9.05132C0.669443 9.44352 0.0811388 9.63962 0.0811388 10C0.0811388 10.3604 0.669442 10.5565 1.84605 10.9487L4.60263 11.8675L4.60265 11.8675C5.5337 12.1779 5.99923 12.3331 6.33307 12.6669C6.66693 13.0008 6.8221 13.4663 7.13245 14.3974L8.05132 17.1539C8.44352 18.3306 8.63962 18.9189 9 18.9189C9.36038 18.9189 9.55648 18.3306 9.94868 17.154L10.8675 14.3974L10.8675 14.3974C11.1779 13.4663 11.3331 13.0008 11.6669 12.6669C12.0008 12.3331 12.4663 12.1779 13.3974 11.8675L13.3974 11.8675L16.1539 10.9487C17.3306 10.5565 17.9189 10.3604 17.9189 10C17.9189 9.63962 17.3306 9.44352 16.154 9.05132L13.3974 8.13246C12.4663 7.8221 12.0008 7.66693 11.6669 7.33307C11.3331 6.99923 11.1779 6.5337 10.8675 5.60264L10.8675 5.60263L9.94868 2.84605C9.55648 1.66944 9.36038 1.08114 9 1.08114C8.63962 1.08114 8.44352 1.66944 8.05132 2.84605L7.13246 5.60263C6.8221 6.53369 6.66693 6.99922 6.33307 7.33307C5.99922 7.66693 5.53369 7.8221 4.60263 8.13245Z" fill="#19607E"/>
</svg>
